<?xml version="1.0" standalone="no"?>
<!DOCTYPE svg PUBLIC "-//W3C//DTD SVG 20010904//EN"
 "http://www.w3.org/TR/2001/REC-SVG-20010904/DTD/svg10.dtd">
<svg version="1.0" xmlns="http://www.w3.org/2000/svg"
 width="512.000000pt" height="512.000000pt" viewBox="0 0 512.000000 512.000000"
 preserveAspectRatio="xMidYMid meet">

<g transform="translate(0.000000,512.000000) scale(0.100000,-0.100000)"
fill="#000000" stroke="none">
<path d="M2345 4984 c-276 -28 -501 -80 -710 -161 -125 -49 -334 -155 -432
-219 -94 -61 -109 -88 -76 -132 33 -44 62 -40 171 27 394 243 841 362 1297
348 207 -7 336 -25 520 -72 1030 -265 1755 -1200 1755 -2265 0 -416 -128 -870
-345 -1220 -559 -901 -1631 -1317 -2644 -1025 -633 182 -1159 624 -1451 1220
-392 797 -294 1758 251 2458 89 114 97 143 47 180 -41 31 -69 17 -139 -70
-267 -331 -450 -760 -515 -1208 -22 -149 -25 -496 -5 -635 65 -472 251 -906
541 -1266 280 -347 705 -639 1138 -782 894 -296 1880 -60 2542 610 376 380
623 885 695 1423 22 161 22 470 1 630 -152 1122 -998 1976 -2121 2141 -98 14
-440 26 -520 18z"/>
<path d="M2285 4538 c-187 -21 -444 -95 -628 -182 -405 -189 -758 -537 -957
-941 -386 -785 -232 -1723 385 -2340 287 -289 638 -478 1033 -560 667 -139
1362 68 1846 549 626 623 781 1558 391 2351 -301 612 -888 1032 -1568 1120
-128 16 -372 18 -502 3z m489 -143 c826 -108 1485 -742 1626 -1563 126 -734
-192 -1478 -809 -1893 -568 -383 -1294 -432 -1903 -129 -202 100 -376 227
-529 386 -553 573 -687 1434 -335 2149 260 527 741 903 1311 1024 199 42 439
52 639 26z"/>
<path d="M1752 3550 c-69 -35 -115 -83 -145 -149 -18 -40 -21 -71 -24 -231 -4
-202 0 -224 50 -248 25 -12 27 -17 27 -80 0 -66 -1 -68 -30 -79 -36 -14 -54
-53 -47 -106 6 -43 21 -65 54 -78 19 -7 23 -16 23 -53 0 -39 -4 -47 -27 -58
-53 -25 -54 -33 -51 -428 l3 -365 26 -56 c31 -66 84 -120 148 -151 39 -19 67
-23 180 -26 82 -3 155 0 187 7 67 15 137 62 174 117 61 88 61 80 58 975 -3
804 -3 815 -24 860 -32 68 -82 119 -149 151 -58 27 -65 28 -216 28 -154 0
-157 0 -217 -30z"/>
<path d="M2890 3563 c-28 -10 -67 -38 -102 -73 -90 -90 -88 -78 -88 -657 0
-329 4 -501 11 -514 5 -11 21 -24 35 -29 19 -8 24 -17 24 -45 0 -24 -5 -35
-14 -35 -8 0 -24 -12 -36 -27 -21 -26 -21 -35 -18 -278 3 -237 4 -252 26 -292
35 -66 79 -110 140 -140 55 -27 62 -28 222 -28 160 0 167 1 216 27 28 15 70
48 92 73 76 87 73 39 70 986 l-3 844 -23 42 c-28 54 -81 107 -135 135 -38 21
-58 23 -207 25 -132 2 -174 -1 -210 -14z"/>
</g>
</svg>
